<?xml version="1.0" standalone="no"?>
<!DOCTYPE svg PUBLIC "-//W3C//DTD SVG 20010904//EN"
 "http://www.w3.org/TR/2001/REC-SVG-20010904/DTD/svg10.dtd">
<svg version="1.0" xmlns="http://www.w3.org/2000/svg"
 width="550.000000pt" height="550.000000pt" viewBox="0 0 550.000000 550.000000"
 preserveAspectRatio="xMidYMid meet">
<metadata>
Created by potrace 1.16, written by Peter Selinger 2001-2019
</metadata>
<g transform="translate(0.000000,550.000000) scale(0.100000,-0.100000)"
fill="#000000" stroke="none">
<path d="M2235 5477 c-155 -58 -310 -192 -382 -332 -42 -81 -104 -272 -188
-580 -26 -93 -48 -176 -51 -183 -3 -10 -14 -5 -38 16 -84 73 -216 112 -386
112 -138 0 -216 -17 -325 -70 -145 -70 -254 -192 -297 -333 -29 -98 -22 -286
16 -402 77 -236 257 -412 533 -522 51 -20 93 -40 93 -44 0 -4 -18 -10 -40 -14
-70 -12 -158 -63 -200 -116 -61 -77 -83 -146 -88 -275 -5 -136 7 -200 59 -304
46 -91 128 -174 209 -211 33 -15 52 -30 55 -43 41 -213 103 -399 200 -603 182
-381 451 -752 794 -1093 178 -177 305 -280 415 -335 58 -30 79 -35 136 -35 57
0 78 5 136 35 110 55 237 157 415 335 230 229 404 443 584 718 l67 102 84 -79
c166 -158 408 -337 557 -415 77 -40 146 -47 197 -21 52 27 74 97 49 162 -5 15
-16 57 -24 93 -16 76 -48 390 -41 398 3 2 42 -3 88 -12 46 -10 131 -22 189
-28 96 -10 112 -10 154 6 58 23 85 63 85 128 0 41 -6 53 -42 95 -61 70 -134
187 -233 373 -102 192 -128 231 -192 295 -48 48 -169 115 -208 115 -43 0 -45
11 -18 100 22 75 24 100 21 210 -3 115 -6 130 -35 191 -53 114 -132 181 -246
210 -26 6 -46 16 -45 21 2 6 31 20 63 33 166 62 298 147 396 253 81 88 123
159 162 269 25 75 31 107 35 214 4 109 2 137 -16 196 -43 141 -152 263 -297
333 -109 53 -187 70 -325 70 -168 0 -277 -31 -375 -105 -30 -24 -47 -31 -50
-23 -2 7 -24 90 -50 183 -71 261 -143 491 -174 559 -99 217 -330 376 -543 376
-88 -1 -136 -14 -290 -80 l-78 -34 -77 34 c-157 67 -202 80 -293 79 -63 0
-101 -6 -145 -22z m315 -263 c103 -48 107 -49 200 -49 93 0 97 1 200 49 138
65 185 70 275 28 132 -62 204 -146 255 -297 34 -99 121 -398 200 -688 l51
-187 -20 -44 c-24 -55 -92 -130 -146 -162 -61 -35 -170 -70 -282 -89 -206 -36
-860 -36 -1066 0 -112 19 -221 54 -282 89 -54 32 -122 107 -146 162 l-20 44
51 187 c135 492 197 696 238 777 37 74 127 160 214 202 98 47 138 44 278 -22z
m-1198 -953 c49 -19 106 -62 132 -100 14 -20 39 -75 54 -121 36 -107 64 -162
114 -225 115 -146 299 -235 568 -277 120 -18 940 -18 1060 0 269 42 453 131
568 277 50 63 78 118 114 225 33 99 65 149 117 183 124 82 354 79 489 -7 55
-35 117 -106 137 -159 25 -65 17 -238 -14 -318 -119 -300 -578 -472 -1416
-529 -205 -14 -842 -14 -1050 0 -700 47 -1121 169 -1321 382 -89 95 -124 191
-124 343 0 74 4 99 24 140 38 79 129 156 221 185 84 27 259 28 327 1z m273
-1215 l130 -23 6 -45 c20 -135 130 -227 274 -228 122 0 222 68 261 177 l17 48
437 0 437 0 17 -48 c65 -182 312 -239 455 -104 41 39 81 120 81 165 0 18 6 34
13 36 32 10 310 56 314 52 2 -2 7 -38 10 -80 l6 -76 58 0 c126 0 206 -36 235
-107 18 -43 18 -177 -1 -240 -17 -56 -62 -124 -100 -149 -15 -10 -57 -19 -103
-23 l-77 -6 -8 -80 c-4 -44 -12 -84 -17 -89 -6 -6 -101 32 -245 98 -531 242
-734 303 -1022 313 -181 6 -267 -3 -439 -47 -156 -41 -331 -105 -567 -211
-343 -154 -359 -161 -368 -152 -4 4 -11 45 -15 91 l-7 82 -56 0 c-137 0 -241
137 -241 318 0 143 51 189 215 199 l95 6 0 41 c0 23 3 58 7 79 6 37 7 39 37
32 17 -4 90 -17 161 -29z m1240 -640 c195 -16 468 -109 875 -301 91 -43 190
-87 222 -99 l56 -21 -47 -120 c-128 -321 -330 -647 -600 -970 -177 -212 -479
-491 -588 -543 -30 -14 -36 -14 -65 0 -75 36 -213 151 -368 307 -313 314 -570
670 -741 1026 -75 156 -128 297 -113 302 5 2 74 33 154 69 462 211 632 277
830 324 94 22 242 39 290 34 14 -2 57 -5 95 -8z m1742 -237 c52 -25 88 -73
183 -244 40 -71 95 -163 122 -202 58 -87 61 -86 -111 -47 -149 34 -299 83
-388 128 -61 30 -74 42 -93 81 -59 121 2 259 132 301 50 16 97 11 155 -17z
m-335 -562 c23 -14 91 -42 150 -62 l107 -37 6 -42 c3 -22 12 -102 20 -176 9
-74 18 -150 22 -169 5 -31 4 -32 -14 -22 -81 43 -339 256 -408 336 -71 83 -74
101 -34 195 l34 78 36 -38 c21 -21 57 -49 81 -63z"/>
</g>
</svg>
